<svg viewBox="0 0 500 500" xmlns="http://www.w3.org/2000/svg" xmlns:xlink="http://www.w3.org/1999/xlink" width="100%" id="blobSvg">
  <defs>
    <clipPath id="shape">
      <path id="blob" d="M472.5,284.5Q464,319,437,342.5Q410,366,402,407Q394,448,356,454Q318,460,284,450Q250,440,222.5,429.5Q195,419,155,427.5Q115,436,103,400.5Q91,365,85.5,335Q80,305,65,277.5Q50,250,36,213Q22,176,44,146Q66,116,103.5,108Q141,100,159.5,64Q178,28,214,21.5Q250,15,278.5,45.5Q307,76,350,64.5Q393,53,406.5,89.5Q420,126,451.5,150Q483,174,482,212Q481,250,472.5,284.5Z" fill="none" stroke-width="7px" stroke="#d1d8e0"></path>
    </clipPath>
  </defs>
  <image x="0" y="0" width="100%" height="100%" clip-path="url(#shape)" xlink:href="https://serving.photos.photobox.com/7937509671ce2aa2919ef450f102f2d75feeaf9d8aa57dd6ab50bb84e8ceda9c05e22455.jpg" preserveAspectRatio="none"></image>
</svg>